<svg width="0" height="0" class="hidden">
  <symbol xmlns="http://www.w3.org/2000/svg" viewBox="0 0 27 27" id="search">
    <g filter="url(#filter0_d_0_170)">
      <path fill-rule="evenodd" clip-rule="evenodd" d="M21.9005 16.4865L18.3205 12.9065L18.3195 12.9055C20.9095 9.569 20.4594 4.79387 17.2916 2.00007C14.1238 -0.793727 9.32983 -0.643497 6.34317 2.34317C3.3565 5.32983 3.20627 10.1238 6.00007 13.2916C8.79387 16.4594 13.569 16.9095 16.9055 14.3195L20.4855 17.8995C20.7364 18.1596 21.1081 18.2642 21.4578 18.1729C21.8075 18.0816 22.0808 17.8088 22.1725 17.4592C22.2643 17.1097 22.1603 16.7378 21.9005 16.4865ZM17.1967 11.0005C16.1249 12.8569 14.1441 14.0005 12.0005 14.0005C8.68681 14.0005 6.00052 11.3142 6.00052 8.00052C6.00052 4.68681 8.68681 2.00052 12.0005 2.00052C14.1441 2.00052 16.1249 3.14411 17.1967 5.00052C18.2685 6.85693 18.2685 9.14411 17.1967 11.0005Z"></path>
    </g>
    <defs>
      <filter id="filter0_d_0_170" x="0" y="0" width="26.2053" height="26.2053" filterUnits="userSpaceOnUse" color-interpolation-filters="sRGB">
        <feFlood flood-opacity="0" result="BackgroundImageFix"></feFlood>
        <feColorMatrix in="SourceAlpha" type="matrix" values="0 0 0 0 0 0 0 0 0 0 0 0 0 0 0 0 0 0 127 0" result="hardAlpha"></feColorMatrix>
        <feOffset dy="4"></feOffset>
        <feGaussianBlur stdDeviation="2"></feGaussianBlur>
        <feComposite in2="hardAlpha" operator="out"></feComposite>
        <feColorMatrix type="matrix" values="0 0 0 0 0 0 0 0 0 0 0 0 0 0 0 0 0 0 0.25 0"></feColorMatrix>
        <feBlend mode="normal" in2="BackgroundImageFix" result="effect1_dropShadow_0_170"></feBlend>
        <feBlend mode="normal" in="SourceGraphic" in2="effect1_dropShadow_0_170" result="shape"></feBlend>
      </filter>
    </defs>
  </symbol>
</svg>