<svg width="0" height="0" class="hidden">
  <symbol xmlns="http://www.w3.org/2000/svg" viewBox="0 0 27 27" id="search">
    <g filter="url(#filter0_d_0_170)">
      <path fill-rule="evenodd" clip-rule="evenodd" d="M21.9005 16.4865L18.3205 12.9065L18.3195 12.9055C20.9095 9.569 20.4594 4.79387 17.2916 2.00007C14.1238 -0.793727 9.32983 -0.643497 6.34317 2.34317C3.3565 5.32983 3.20627 10.1238 6.00007 13.2916C8.79387 16.4594 13.569 16.9095 16.9055 14.3195L20.4855 17.8995C20.7364 18.1596 21.1081 18.2642 21.4578 18.1729C21.8075 18.0816 22.0808 17.8088 22.1725 17.4592C22.2643 17.1097 22.1603 16.7378 21.9005 16.4865ZM17.1967 11.0005C16.1249 12.8569 14.1441 14.0005 12.0005 14.0005C8.68681 14.0005 6.00052 11.3142 6.00052 8.00052C6.00052 4.68681 8.68681 2.00052 12.0005 2.00052C14.1441 2.00052 16.1249 3.14411 17.1967 5.00052C18.2685 6.85693 18.2685 9.14411 17.1967 11.0005Z"></path>
    </g>
    <defs>
      <filter id="filter0_d_0_170" x="0" y="0" width="26.2053" height="26.2053" filterUnits="userSpaceOnUse" color-interpolation-filters="sRGB">
        <feFlood flood-opacity="0" result="BackgroundImageFix"></feFlood>
        <feColorMatrix in="SourceAlpha" type="matrix" values="0 0 0 0 0 0 0 0 0 0 0 0 0 0 0 0 0 0 127 0" result="hardAlpha"></feColorMatrix>
        <feOffset dy="4"></feOffset>
        <feGaussianBlur stdDeviation="2"></feGaussianBlur>
        <feComposite in2="hardAlpha" operator="out"></feComposite>
        <feColorMatrix type="matrix" values="0 0 0 0 0 0 0 0 0 0 0 0 0 0 0 0 0 0 0.25 0"></feColorMatrix>
        <feBlend mode="normal" in2="BackgroundImageFix" result="effect1_dropShadow_0_170"></feBlend>
        <feBlend mode="normal" in="SourceGraphic" in2="effect1_dropShadow_0_170" result="shape"></feBlend>
      </filter>
    </defs>
  </symbol>
</svg>


<svg width="0" height="0" class="hidden">
  <symbol fill="none" xmlns="http://www.w3.org/2000/svg" viewBox="0 0 20 19" id="home">
    <path fill-rule="evenodd" clip-rule="evenodd" d="M1.55192 10.5921C1.19689 10.9455 0.621289 10.9455 0.266267 10.5921C-0.0887555 10.2388 -0.0887555 9.66595 0.266267 9.31262L9.35718 0.264999C9.7122 -0.0883329 10.2878 -0.0883329 10.6428 0.264999L19.7337 9.31262C20.0888 9.66595 20.0888 10.2388 19.7337 10.5921C19.3787 10.9455 18.8031 10.9455 18.4481 10.5921L18.1818 10.3274V17.1945C18.1818 18.1933 17.3689 19 16.3628 19H3.63716C2.63348 19 1.81818 18.1934 1.81818 17.1945V10.3274L1.55192 10.5921ZM3.63716 17.1905L6.36364 17.191V11.7597C6.36364 11.2612 6.77023 10.8571 7.27003 10.8571H12.73C13.2306 10.8571 13.6364 11.2609 13.6364 11.7597V17.1929L16.3636 17.1945V8.51944L10 2.19166L3.63632 8.51948C3.63613 10.2308 3.63716 17.1905 3.63716 17.1905ZM11.8182 12.6653V17.1923L8.18182 17.1914V12.6667L11.8182 12.6653Z" fill="#FF0000"></path>
  </symbol>
</svg>


<svg width="0" height="0" class="hidden">
  <symbol fill="none" xmlns="http://www.w3.org/2000/svg" viewBox="0 0 16 21" id="fire">
    <path opacity="0.24" fill-rule="evenodd" clip-rule="evenodd" d="M13.615 7.20041C15.1323 8.51081 16 10.1175 16 12.321C16 16.9118 12.4133 20.5268 8.0115 20.5268C3.60573 20.5268 0 16.9093 0 12.321C0 9.79412 0.547583 8.23242 2.15502 5.6366C2.66365 4.81522 3.89867 5.11434 3.99436 6.08209C4.08034 6.95167 4.34435 7.69187 4.729 8.25935C4.47244 5.19295 5.80372 1.74433 9.08631 0.10596C9.84629 -0.27335 10.6943 0.424512 10.4966 1.26648C9.98409 3.44851 10.5121 4.62244 11.8924 5.88709C11.926 5.91795 12.098 6.04489 12.3254 6.21279C12.7373 6.51686 13.3311 6.95524 13.615 7.20041ZM2.62075 9.00737C2.33897 9.66335 2 10.4525 2 12.321C2 15.7681 4.70107 18.478 8.0115 18.478C11.3159 18.478 14 15.7727 14 12.321C14 10.7811 13.4246 9.71578 12.3258 8.76679C12.1524 8.61699 11.7458 8.31456 11.3632 8.0299C11.0014 7.76076 10.6609 7.5075 10.559 7.41416C9.23392 6.20002 8.4238 4.9071 8.31376 3.18307C7.64377 3.85212 6.10424 5.93208 6.97198 10.0484C7.1065 10.6865 6.6318 11.289 5.99451 11.289C4.73006 11.289 3.48016 10.2984 2.71627 8.78204C2.68562 8.85634 2.65357 8.93095 2.62075 9.00737Z" fill="black"></path>
  </symbol>
</svg>


<svg width="0" height="0" class="hidden">
  <symbol fill="none" xmlns="http://www.w3.org/2000/svg" viewBox="0 0 18 18" id="save">
    <path opacity="0.24" fill-rule="evenodd" clip-rule="evenodd" d="M3.9056 1C3.9056 0.447715 4.35471 0 4.901 0H12.9102C13.4599 0 13.9056 0.443865 13.9056 1C13.9056 1.55228 13.4565 2 12.9102 2H4.901C4.35125 2 3.9056 1.55614 3.9056 1ZM0.0101027 8.0949L0.811023 16.1041C0.917267 17.1665 1.83603 18 2.90122 18H14.91C15.9712 18 16.8943 17.1632 17.0002 16.1041L17.8011 8.0949C17.9152 6.95379 17.0495 6 15.9047 6H1.90647C0.759323 6 -0.103812 6.95576 0.0101027 8.0949ZM2.01101 8.00421L15.7998 8.0079L14.9056 16H2.9056L2.01101 8.00421ZM2.90122 3C2.35555 3 1.9056 3.44772 1.9056 4C1.9056 4.55614 2.35136 5 2.90122 5H14.91C15.4557 5 15.9056 4.55228 15.9056 4C15.9056 3.44386 15.4598 3 14.91 3H2.90122Z" fill="black"></path>
  </symbol>
</svg>